<?xml version="1.0" encoding="UTF-8"?>
<svg id="Layer_2" data-name="Layer 2" xmlns="http://www.w3.org/2000/svg" viewBox="0 0 908.57 902.86">
  <defs>
    <style>
      .cls-1 {
        fill: #f8971d;
      }

      .cls-2 {
        fill: #fff200;
      }
    </style>
  </defs>
  <g id="Layer_1-2" data-name="Layer 1">
    <g>
      <g>
        <circle class="cls-1" cx="211.43" cy="451.43" r="211.43"/>
        <circle class="cls-1" cx="454.29" cy="211.43" r="211.43"/>
        <circle class="cls-1" cx="697.14" cy="451.43" r="211.43"/>
        <circle class="cls-1" cx="461.43" cy="691.43" r="211.43"/>
        <circle class="cls-2" cx="454.29" cy="451.43" r="150"/>
      </g>
      <g>
        <path class="cls-2" d="M148.62,421.71c6,3.45,9,5.17,15,8.61,4.8-8.38,7.31-12.44,12.54-20.31-5.75-3.85-8.62-5.78-14.36-9.64,1.48-2.23,2.23-3.34,3.75-5.53,11.3,7.89,22.6,15.78,33.9,23.67-1.34,1.94-2,2.92-3.32,4.9-6.44-4.32-9.66-6.48-16.1-10.8-5.16,7.76-7.64,11.77-12.37,20.03,6.72,3.86,10.08,5.79,16.8,9.65-1.19,2.08-1.78,3.13-2.94,5.24-12.07-6.64-24.15-13.27-36.22-19.91,1.31-2.39,1.98-3.57,3.32-5.92Z"/>
        <path class="cls-2" d="M204.9,379.67c-4.71,5.51-7,8.35-11.47,14.18,4.72,3.65,7.07,5.48,11.79,9.13,4.76-6.22,7.21-9.23,12.26-15.06,1.35,1.18,2.02,1.77,3.37,2.95-6.46,7.46-9.58,11.36-15.55,19.46-11.05-8.24-22.1-16.49-33.14-24.73,6.48-8.79,9.86-13.02,16.85-21.14,1.35,1.18,2.03,1.76,3.38,2.94-5.25,6.11-7.81,9.25-12.77,15.74,4.13,3.2,6.2,4.8,10.33,8,4.52-5.91,6.85-8.78,11.62-14.37,1.34,1.16,2.01,1.73,3.34,2.89Z"/>
        <path class="cls-2" d="M221.1,371.21c2.47,4.96,3.73,7.43,6.31,12.3-1.58,1.71-2.36,2.58-3.91,4.32-6.89-13.12-13.33-26.35-19.41-39.86,2.13-2.18,3.2-3.26,5.37-5.39,13.43,6.13,26.55,12.64,39.55,19.64-1.76,1.57-2.63,2.37-4.36,3.98-4.87-2.58-7.33-3.84-12.3-6.3-4.59,4.39-6.84,6.65-11.25,11.3ZM228.6,357.72c-4.57-2.21-6.88-3.29-11.52-5.4-2.64-1.19-4.87-2.44-7.06-3.63-.04.04-.06.06-.1.1,1.23,2.25,2.46,4.58,3.61,7,2.11,4.69,3.19,7.02,5.4,11.64,3.8-3.98,5.74-5.93,9.67-9.72Z"/>
        <path class="cls-2" d="M227.2,327.04c2.02-2.46,5.27-5.58,8.59-8.25,5.15-4.13,9.22-5.81,12.95-5.71,2.99.09,5.72,1.6,7.59,4.19,3.2,4.43,2.28,9.56-.58,13.59.04.06.07.09.11.15,3.42-1.22,6.82-.03,10.19,2.82,4.53,3.83,7.69,6.49,9.33,7.28-1.83,1.31-2.73,1.97-4.54,3.31-1.25-.53-4.17-2.82-8.21-6.2-4.47-3.73-7.7-4.06-11.9-.93-1.7,1.36-2.54,2.05-4.22,3.44,4.56,5.54,6.85,8.3,11.41,13.84-1.69,1.4-2.53,2.11-4.2,3.54-8.84-10.36-17.68-20.71-26.52-31.07ZM243.93,337.6c1.85-1.53,2.77-2.28,4.64-3.78,4.88-3.9,6.17-8.74,3.34-12.53-3.2-4.28-8.18-3.54-13.22.45-2.3,1.82-3.77,3.38-4.38,4.2,3.84,4.66,5.77,7,9.61,11.66Z"/>
        <path class="cls-2" d="M267.46,301.92c-4.76,3.08-7.11,4.67-11.77,7.95l-2.62-3.71c9.69-6.6,19.36-12.73,29.45-18.69.9,1.58,1.35,2.37,2.25,3.95-4.92,2.79-7.36,4.24-12.19,7.24,6.5,10.42,13,20.85,19.51,31.27-1.85,1.15-2.77,1.73-4.6,2.92-6.68-10.31-13.36-20.62-20.04-30.94Z"/>
        <path class="cls-2" d="M292.4,282.08c3.24,6.12,4.86,9.19,8.1,15.31,7.62-4.01,11.48-5.88,19.3-9.38-2.85-6.31-4.28-9.47-7.13-15.78,2.22-.99,3.33-1.48,5.56-2.43,5.47,12.67,10.94,25.33,16.41,38-1.98.84-2.96,1.27-4.92,2.15-3.2-7.07-4.79-10.61-7.99-17.68-7.71,3.45-11.53,5.3-19.04,9.25,3.63,6.86,5.45,10.29,9.08,17.15-1.89.99-2.83,1.5-4.71,2.53-6.66-12.09-13.32-24.17-19.98-36.26,2.12-1.16,3.18-1.73,5.32-2.86Z"/>
        <path class="cls-2" d="M379.74,292.42c-1.41-.84-2.77-1.69-4.77-2.92-2.55,4.13-5.9,6.56-10.18,7.9-7.57,2.37-13.73-1.1-15.84-6.93-1.92-5.31.07-10.15,4.02-14.16-.02-.07-.03-.1-.06-.17-3.02-1.85-5.32-4.24-6.29-7.02-1.64-4.76.5-11,7.85-13.24,5.52-1.68,10.74.47,12.17,5.61,1.17,4.2-.57,8.18-6.25,13.31.02.07.03.11.05.18,4.73,2.79,9.9,6.05,13.28,8.19,1.11-3.29,1.37-7.48.86-12.73,2.01-.52,3.02-.77,5.03-1.26.42,6.59-.11,12.02-2.17,16.3,2.76,1.69,5.42,3.43,8.4,5.43-2.45.59-3.67.89-6.11,1.52ZM371.58,287.25c-3.13-1.93-9.07-5.44-15.31-8.98-1.78,2.05-4.02,5.59-2.6,9.71,1.54,4.47,6.02,6.75,10.77,5.28,3.4-1.05,5.82-3.41,7.14-6.01ZM351.54,266.96c.92,2.8,3.02,4.51,5.5,6.04,3.52-3.61,5.71-6.53,4.72-9.88-.71-2.41-3.01-4.7-6.59-3.61-3.64,1.11-4.63,4.42-3.63,7.45Z"/>
        <path class="cls-2" d="M401.36,245.6c1.15,6.82,1.73,10.23,2.88,17.06,8.36-1.38,12.56-1.95,20.97-2.82-.73-6.88-1.09-10.32-1.82-17.2,2.39-.25,3.58-.36,5.97-.57,1.22,13.72,2.45,27.45,3.67,41.17-2.12.18-3.17.29-5.28.5-.82-7.71-1.23-11.56-2.04-19.27-8.3.86-12.44,1.42-20.69,2.78,1.29,7.65,1.94,11.47,3.23,19.11-2.07.34-3.11.52-5.18.9-2.52-13.55-5.04-27.1-7.55-40.65,2.34-.43,3.51-.63,5.85-1.02Z"/>
        <path class="cls-2" d="M477.85,261.3c-.52,10.99-8.14,21.3-19.88,21.4-11.29.1-18.88-9.67-19.65-20.22-.86-11.89,7.65-22.31,19.87-22.46,11.89-.15,20.21,9.81,19.66,21.29ZM444.27,262.01c.45,8.82,5.6,16.41,13.96,16.33,8.42-.08,13.42-7.65,13.71-17.03.25-8.21-4.2-17.04-13.98-16.95-9.71.09-14.14,8.57-13.69,17.64Z"/>
        <path class="cls-2" d="M483.63,282.76c.96-13.75,1.92-27.49,2.87-41.24,2.58.18,3.87.28,6.45.5,5.13,8.84,7.53,13.3,11.96,22.3,2.57,5.21,4.36,9.87,5.68,14.34.05-.02.08-.03.13-.04.34-5.53.96-10.52,1.92-16.89,1.03-6.84,1.55-10.26,2.58-17.1,2.21.33,3.32.5,5.53.86-2.27,13.59-4.53,27.19-6.8,40.78-2.1-.34-3.15-.51-5.25-.81-3.87-9.05-5.98-13.55-10.55-22.47-2.51-4.89-5.01-9.86-6.9-14.51-.08.02-.12.03-.21.04-.1,5.22-.4,10.18-.98,17.03-.6,7.04-.9,10.56-1.5,17.6-1.97-.16-2.96-.24-4.93-.37Z"/>
        <path class="cls-2" d="M548.57,273.8c-6.51-1.7-9.79-2.47-16.37-3.85-1.25,5.83-1.87,8.75-3.11,14.58,7.01,1.47,10.5,2.3,17.43,4.15-.47,1.73-.71,2.59-1.18,4.32-8.87-2.37-13.35-3.4-22.35-5.13,2.66-13.52,5.31-27.05,7.97-40.57,9.76,1.88,14.62,2.99,24.24,5.53-.47,1.73-.7,2.6-1.16,4.33-7.24-1.91-10.88-2.77-18.19-4.31-1.09,5.11-1.64,7.67-2.73,12.78,6.66,1.4,9.98,2.18,16.58,3.9-.45,1.71-.68,2.56-1.14,4.27Z"/>
        <path class="cls-2" d="M560.81,297.56c2.18-6.67,3.27-10.01,5.46-16.69-2.23-10.73-3.54-16.1-6.57-26.83,2.61.73,3.91,1.1,6.51,1.88,1.17,5.11,1.71,7.67,2.71,12.78.68,3.5,1.13,6.3,1.5,9.46.05.02.07.02.12.04,2.03-2.17,4.34-4.24,7.01-6.63,3.95-3.46,5.97-5.17,10.06-8.53,2.55.94,3.83,1.42,6.36,2.41-7.65,5.38-15.16,11.14-22.34,17.13-2.3,6.66-3.45,9.99-5.76,16.65-2.02-.69-3.04-1.03-5.07-1.68Z"/>
        <path class="cls-2" d="M612.09,273.7c2.59.64,6.51,2.06,10.3,3.93,5.4,2.66,8.38,5.41,9.97,8.53,1.28,2.52,1.42,5.39-.16,8.24-1.94,3.49-6.14,5.14-11.02,4.39-.02.04-.03.07-.06.11,3.26,2.82,5.95,8.05,2.94,13.4-1.75,3.11-4.37,4.8-7.17,5.51-3.76.96-8.5-.2-14.55-3.15-3.3-1.61-5.75-3-7.26-3.96,5.67-12.33,11.34-24.66,17.01-36.99ZM610.19,291.51c1.88.89,2.81,1.35,4.68,2.27,5.43,2.69,9.95,1.79,11.84-1.73,2.29-4.28-.44-7.92-5.85-10.59-2.46-1.21-3.96-1.72-4.9-1.97-2.31,4.81-3.46,7.21-5.77,12.01ZM601.61,309.39c.87.62,2.24,1.34,3.96,2.19,5.01,2.47,10.51,3.13,13.37-2.17,2.68-4.97-.74-9.48-6.29-12.21-1.68-.83-2.52-1.24-4.21-2.04-2.73,5.69-4.1,8.54-6.83,14.23Z"/>
        <path class="cls-2" d="M637.16,318.58c-4.28,3.48-6.39,5.24-10.57,8.81-1.91-1.14-2.86-1.71-4.79-2.82,11.21-9.56,22.63-18.69,34.41-27.53,2.48,1.58,3.71,2.39,6.16,4.02-3.35,14.36-7.1,28.51-11.3,42.64-1.87-1.38-2.81-2.06-4.7-3.4,1.55-5.29,2.29-7.95,3.7-13.3-5.1-3.51-7.68-5.19-12.91-8.43ZM651.46,322.9c1.26-4.91,1.86-7.38,3.01-12.34.65-2.81,1.42-5.24,2.16-7.63-.05-.03-.07-.05-.12-.08-1.92,1.68-3.92,3.38-6.03,5.02-4.1,3.06-6.12,4.62-10.12,7.77,4.49,2.8,6.71,4.25,11.1,7.25Z"/>
        <path class="cls-2" d="M681.19,314.56c1.95,1.5,2.92,2.26,4.85,3.8-4.96,6.26-7.45,9.38-12.41,15.64.06.05.09.07.16.12,1.94-.5,3.81-.88,5.55-1.2,8.26-1.29,12.46-1.8,20.98-2.55,2.31,2.05,3.46,3.09,5.74,5.2-9.9.4-14.77.8-24.34,1.94-.49,9.77-1.43,19.65-2.8,29.34-1.92-1.79-2.88-2.68-4.83-4.42,1.21-9.83,1.65-14.82,2.19-24.89-2.47.33-3.7.5-6.15.87-3.93,4.95-5.89,7.42-9.81,12.37-1.71-1.36-2.57-2.03-4.3-3.36,8.39-10.96,16.79-21.91,25.18-32.87Z"/>
        <path class="cls-2" d="M711.91,372.78c-4.83-5.35-7.3-7.94-12.34-12.96-4.19,4.25-6.28,6.38-10.47,10.63,5.38,5.35,8,8.12,13.12,13.86-1.33,1.2-2,1.8-3.33,3-6.55-7.34-9.94-10.85-16.91-17.55,9.51-9.99,19.03-19.99,28.54-29.98,7.57,7.27,11.25,11.07,18.37,19-1.33,1.2-1.99,1.81-3.32,3.01-5.35-5.96-8.09-8.85-13.7-14.43-3.67,3.73-5.51,5.59-9.18,9.32,5.11,5.09,7.62,7.71,12.5,13.13-1.31,1.19-1.96,1.79-3.26,2.98Z"/>
        <path class="cls-2" d="M734.63,366.21c2.52,2.1,5.73,5.5,8.5,8.99,4.3,5.42,6.13,9.72,6.12,13.6,0,3.12-1.47,5.93-4.05,7.8-4.43,3.2-9.68,2.04-13.86-1.05-.06.04-.09.07-.15.11,1.32,3.59.21,7.11-2.59,10.54-3.77,4.61-6.39,7.83-7.15,9.52-1.39-1.96-2.09-2.94-3.51-4.87.5-1.29,2.76-4.26,6.09-8.37,3.68-4.53,3.93-7.89.66-12.31-1.42-1.79-2.13-2.67-3.57-4.43-5.51,4.58-8.27,6.87-13.79,11.45-1.45-1.76-2.18-2.64-3.65-4.36,10.31-8.88,20.62-17.75,30.93-26.63ZM724.25,383.17c1.58,1.93,2.37,2.9,3.92,4.86,4.06,5.13,9.03,6.65,12.81,3.82,4.27-3.2,3.38-8.42-.78-13.73-1.9-2.42-3.5-3.97-4.34-4.6-4.65,3.86-6.97,5.79-11.61,9.65Z"/>
        <path class="cls-2" d="M730.38,429.03c5.91-3.79,8.86-5.68,14.77-9.47,4.01-8.6,7.71-17.44,11.05-26.32,1.71,2.45,2.56,3.69,4.24,6.2-2.17,4.96-3.3,7.41-5.61,12.25-1.59,3.32-2.93,5.91-4.57,8.73.03.05.05.07.08.12,3.02-.26,6.19-.24,9.87-.2,5.4.12,8.11.23,13.57.56,1.54,2.67,2.29,4.01,3.79,6.73-9.58-1.37-19.36-2.3-29.02-2.75-6,3.69-9,5.53-14.99,9.22-1.25-2.05-1.89-3.06-3.17-5.08Z"/>
      </g>
    </g>
  </g>
</svg>